<svg xmlns="http://www.w3.org/2000/svg" version="1.1" xmlns:xlink="http://www.w3.org/1999/xlink" xmlns:svgjs="http://svgjs.com/svgjs" width="512" height="512" x="0" y="0" viewBox="0 0 64 64" style="enable-background:new 0 0 512 512" xml:space="preserve" class=""><g><path d="M8 6h2v2H8zM12 6h2v2h-2zM16 6h2v2h-2zM9 28h16a1 1 0 0 0 1-1V17a1 1 0 0 0-1-1H9a1 1 0 0 0-1 1v10a1 1 0 0 0 1 1zm1-10h14v8H10zM34 17h16v2H34zM30 21h18v2H30zM30 25h14v2H30zM12 32h26v2H12zM8 36h26v2H8zM8 40h22v2H8zM8 44h22v2H8zM8 48h22v2H8zM8 32h2v2H8z" fill="#ffffff" data-original="#000000" class=""></path><path d="M57 8h-1V7a5 5 0 0 0-5-5H7a5 5 0 0 0-5 5v44a5 5 0 0 0 5 5h1v1a5 5 0 0 0 5 5h44a5 5 0 0 0 5-5V13a5 5 0 0 0-5-5zm-1.79 15.54 4.25 4.25-2.83 2.83-4.25-4.25zM37.13 43.65l.79-2.05 3.48 3.48-2.05.79zm.18 3-1.57.61.61-1.57zm3.05-5.43-1.41-1.41 12.02-12.02 1.41 1.41zm13.44-10.6 1.41 1.41-12.02 12.02-1.41-1.41zM4 7a3.009 3.009 0 0 1 3-3h44a3.009 3.009 0 0 1 3 3v3H4zm3 47a3.009 3.009 0 0 1-3-3V12h50v9.93L36.83 39.1a1.014 1.014 0 0 0-.23.35l-3.53 9.19a.988.988 0 0 0 .22 1.07A1.007 1.007 0 0 0 34 50a.922.922 0 0 0 .36-.07l9.19-3.53a1.014 1.014 0 0 0 .35-.23L54 36.07V51a3.009 3.009 0 0 1-3 3zm53 3a3.009 3.009 0 0 1-3 3H13a3.009 3.009 0 0 1-3-3v-1h41a5 5 0 0 0 5-5V34.07l4-4zm0-31.5-4-4V18h4zm0-9.5h-4v-6h1a3.009 3.009 0 0 1 3 3z" fill="#ffffff" data-original="#000000" class=""></path><path d="M30 17h2v2h-2z" fill="#ffffff" data-original="#000000" class=""></path></g></svg>