<svg xmlns="http://www.w3.org/2000/svg" version="1.1" xmlns:xlink="http://www.w3.org/1999/xlink" xmlns:svgjs="http://svgjs.com/svgjs" width="512" height="512" x="0" y="0" viewBox="0 0 682.667 682.667" style="enable-background:new 0 0 512 512" xml:space="preserve" class=""><g><defs><clipPath id="a" clipPathUnits="userSpaceOnUse"><path d="M0 512h512V0H0Z" fill="#ffffff" data-original="#000000"></path></clipPath></defs><path d="m0 0 27.412 15.826m-132.771-76.655 27.406 15.823m-54.869-215.054v150.876m159.63-275.662-131.698 76.035m319.365.636L81.704-384.83m159.6 275.646V-260.06M82.173 15.19l131.698-76.035" style="stroke-width:20;stroke-linecap:round;stroke-linejoin:round;stroke-miterlimit:22.926;stroke-dasharray:none;stroke-opacity:1" transform="matrix(1.33333 0 0 -1.33333 269.011 95.088)" fill="none" stroke="#ffffff" stroke-width="20" stroke-linecap="round" stroke-linejoin="round" stroke-miterlimit="22.926" stroke-dasharray="none" stroke-opacity="" data-original="#000000"></path><g clip-path="url(#a)" transform="matrix(1.33333 0 0 -1.33333 0 682.667)"><path d="M0 0c16.524 0 30 13.477 30 30S16.524 60 0 60c-16.523 0-30-13.477-30-30S-16.523 0 0 0Z" style="stroke-width:20;stroke-linecap:round;stroke-linejoin:round;stroke-miterlimit:22.926;stroke-dasharray:none;stroke-opacity:1" transform="translate(256 442.001)" fill="none" stroke="#ffffff" stroke-width="20" stroke-linecap="round" stroke-linejoin="round" stroke-miterlimit="22.926" stroke-dasharray="none" stroke-opacity="" data-original="#000000"></path><path d="M0 0c16.524 0 30 13.477 30 30S16.524 60 0 60c-16.523 0-30-13.477-30-30S-16.523 0 0 0Z" style="stroke-width:20;stroke-linecap:round;stroke-linejoin:round;stroke-miterlimit:22.926;stroke-dasharray:none;stroke-opacity:1" transform="translate(256 9.999)" fill="none" stroke="#ffffff" stroke-width="20" stroke-linecap="round" stroke-linejoin="round" stroke-miterlimit="22.926" stroke-dasharray="none" stroke-opacity="" data-original="#000000"></path><path d="M0 0c16.524 0 30 13.477 30 30S16.524 60 0 60c-16.523 0-30-13.477-30-30S-16.523 0 0 0Z" style="stroke-width:20;stroke-linecap:round;stroke-linejoin:round;stroke-miterlimit:22.926;stroke-dasharray:none;stroke-opacity:1" transform="translate(68.936 334)" fill="none" stroke="#ffffff" stroke-width="20" stroke-linecap="round" stroke-linejoin="round" stroke-miterlimit="22.926" stroke-dasharray="none" stroke-opacity="" data-original="#000000"></path><path d="M0 0c16.524 0 30 13.477 30 30S16.524 60 0 60c-16.523 0-30-13.477-30-30S-16.523 0 0 0Z" style="stroke-width:20;stroke-linecap:round;stroke-linejoin:round;stroke-miterlimit:22.926;stroke-dasharray:none;stroke-opacity:1" transform="translate(68.936 118)" fill="none" stroke="#ffffff" stroke-width="20" stroke-linecap="round" stroke-linejoin="round" stroke-miterlimit="22.926" stroke-dasharray="none" stroke-opacity="" data-original="#000000"></path><path d="M0 0c16.523 0 30 13.477 30 30S16.523 60 0 60s-30-13.477-30-30S-16.523 0 0 0Z" style="stroke-width:20;stroke-linecap:round;stroke-linejoin:round;stroke-miterlimit:22.926;stroke-dasharray:none;stroke-opacity:1" transform="translate(443.063 334)" fill="none" stroke="#ffffff" stroke-width="20" stroke-linecap="round" stroke-linejoin="round" stroke-miterlimit="22.926" stroke-dasharray="none" stroke-opacity="" data-original="#000000"></path><path d="M0 0c16.523 0 30 13.477 30 30S16.523 60 0 60s-30-13.477-30-30S-16.523 0 0 0Z" style="stroke-width:20;stroke-linecap:round;stroke-linejoin:round;stroke-miterlimit:22.926;stroke-dasharray:none;stroke-opacity:1" transform="translate(443.063 118)" fill="none" stroke="#ffffff" stroke-width="20" stroke-linecap="round" stroke-linejoin="round" stroke-miterlimit="22.926" stroke-dasharray="none" stroke-opacity="" data-original="#000000"></path><path d="m0 0 120-69.281v-138.564L0-277.126l-120 69.281v138.564Z" style="stroke-width:20;stroke-linecap:round;stroke-linejoin:round;stroke-miterlimit:22.926;stroke-dasharray:none;stroke-opacity:1" transform="translate(256 394.563)" fill="none" stroke="#ffffff" stroke-width="20" stroke-linecap="round" stroke-linejoin="round" stroke-miterlimit="22.926" stroke-dasharray="none" stroke-opacity="" data-original="#000000"></path><path d="m0 0-118.576-68.459-116.429 67.22" style="stroke-width:20;stroke-linecap:round;stroke-linejoin:round;stroke-miterlimit:22.926;stroke-dasharray:none;stroke-opacity:1" transform="translate(374.575 324.459)" fill="none" stroke="#ffffff" stroke-width="20" stroke-linecap="round" stroke-linejoin="round" stroke-miterlimit="22.926" stroke-dasharray="none" stroke-opacity="" data-original="#000000"></path><path d="M0 0v-133.875" style="stroke-width:20;stroke-linecap:round;stroke-linejoin:round;stroke-miterlimit:22.926;stroke-dasharray:none;stroke-opacity:1" transform="translate(256 256)" fill="none" stroke="#ffffff" stroke-width="20" stroke-linecap="round" stroke-linejoin="round" stroke-miterlimit="22.926" stroke-dasharray="none" stroke-opacity="" data-original="#000000"></path><path d="m0 0 114.669 66.204" style="stroke-width:20;stroke-linecap:round;stroke-linejoin:round;stroke-miterlimit:22.926;stroke-dasharray:none;stroke-opacity:1" transform="translate(198.665 292.18)" fill="none" stroke="#ffffff" stroke-width="20" stroke-linecap="round" stroke-linejoin="round" stroke-miterlimit="22.926" stroke-dasharray="none" stroke-opacity="" data-original="#000000"></path><path d="m0 0 35.662 20.589" style="stroke-width:20;stroke-linecap:round;stroke-linejoin:round;stroke-miterlimit:22.926;stroke-dasharray:none;stroke-opacity:1" transform="translate(300.834 193.324)" fill="none" stroke="#ffffff" stroke-width="20" stroke-linecap="round" stroke-linejoin="round" stroke-miterlimit="22.926" stroke-dasharray="none" stroke-opacity="" data-original="#000000"></path><path d="M0 0h.007" style="stroke-width:20;stroke-linecap:round;stroke-linejoin:round;stroke-miterlimit:2.613;stroke-dasharray:none;stroke-opacity:1" transform="translate(162.777 418.183)" fill="none" stroke="#ffffff" stroke-width="20" stroke-linecap="round" stroke-linejoin="round" stroke-miterlimit="2.613" stroke-dasharray="none" stroke-opacity="" data-original="#000000"></path></g></g></svg>