<svg xmlns="http://www.w3.org/2000/svg" version="1.1" xmlns:xlink="http://www.w3.org/1999/xlink" xmlns:svgjs="http://svgjs.com/svgjs" width="512" height="512" x="0" y="0" viewBox="0 0 128 128" style="enable-background:new 0 0 512 512" xml:space="preserve" class=""><g><path d="M128 28a27.995 27.995 0 0 0-53.377-11.814 49.336 49.336 0 0 0-21.246 0A27.995 27.995 0 0 0 0 28a28.034 28.034 0 0 0 16.185 25.377 48.208 48.208 0 0 0 0 21.246 27.995 27.995 0 1 0 37.192 37.191 48.168 48.168 0 0 0 21.246 0 27.995 27.995 0 1 0 37.192-37.191 48.208 48.208 0 0 0 0-21.246A28.032 28.032 0 0 0 128 28ZM102 3.087A25.028 25.028 0 0 1 124.975 27H102Zm-3-.062V25.7L80 13.024a24.984 24.984 0 0 1 19-9.999ZM78.346 15.53 98.245 28.8 82.96 46.27a24.933 24.933 0 0 1-4.614-30.74ZM28 3a25.038 25.038 0 0 1 24.694 21.1C48.266 20.121 39.215 13.5 28 13.5S7.734 20.121 3.306 24.1A25.038 25.038 0 0 1 28 3ZM16.5 28A11.5 11.5 0 1 1 28 39.5 11.513 11.513 0 0 1 16.5 28Zm.148 8.994A44.373 44.373 0 0 1 3.57 28a44.138 44.138 0 0 1 13.085-9 14.424 14.424 0 0 0-.007 18ZM42.5 28a14.416 14.416 0 0 0-3.148-8.994A44.373 44.373 0 0 1 52.43 28a44.138 44.138 0 0 1-13.085 9 14.42 14.42 0 0 0 3.155-9ZM3.306 31.9C7.734 35.879 16.785 42.5 28 42.5s20.266-6.621 24.694-10.6a25 25 0 0 1-49.388 0ZM28 125a24.893 24.893 0 0 1-16.481-6.225 16.507 16.507 0 0 1 32.962 0A24.893 24.893 0 0 1 28 125Zm-6.957-31.766A6.957 6.957 0 1 1 28 100.191a6.965 6.965 0 0 1-6.957-6.957Zm26.113 22.807A19.7 19.7 0 0 0 34 101.16a9.957 9.957 0 1 0-12 0 19.7 19.7 0 0 0-13.156 14.881 25 25 0 1 1 38.312 0Zm26.333-7.05a46.314 46.314 0 0 1-18.978 0 27.982 27.982 0 0 0-35.5-35.5 45.133 45.133 0 0 1 0-18.98A27.982 27.982 0 0 0 56 28a27.873 27.873 0 0 0-1.489-8.989 46.314 46.314 0 0 1 18.978 0 27.982 27.982 0 0 0 35.5 35.5 45.133 45.133 0 0 1 0 18.98 27.984 27.984 0 0 0-35.5 35.5ZM109 123.317a24.906 24.906 0 0 1-18 0v-1.4h18Zm-18.042-4.4c-.273-5.451-2.092-10.186-6.393-16.844a1.5 1.5 0 0 1 .152-1.841A114.84 114.84 0 0 0 98.5 82.148v17.023a5 5 0 1 0 3 0V82.148a114.84 114.84 0 0 0 13.783 18.083 1.5 1.5 0 0 1 .152 1.841c-4.3 6.658-6.12 11.393-6.393 16.844Zm9.042-17a2 2 0 1 1-2 2 2 2 0 0 1 2-2.001ZM125 100a25.016 25.016 0 0 1-13 21.924v-1.508c0-5.536 1.559-9.91 5.954-16.716a4.5 4.5 0 0 0-.475-5.513 112.741 112.741 0 0 1-13.674-18 4.525 4.525 0 0 0-7.61 0 112.78 112.78 0 0 1-13.674 18 4.5 4.5 0 0 0-.475 5.513C86.441 110.506 88 114.88 88 120.416v1.508A25 25 0 1 1 125 100Zm-25-47a24.86 24.86 0 0 1-14.728-4.816L101.181 30h23.732A25.028 25.028 0 0 1 100 53Z" data-name="Outline" fill="#ffffff" data-original="#000000" class=""></path></g></svg>